<?xml version="1.0" encoding="UTF-8" standalone="no"?>
<!-- Created with Inkscape (http://www.inkscape.org/) -->

<svg
   xmlns:dc="http://purl.org/dc/elements/1.1/"
   xmlns:cc="http://creativecommons.org/ns#"
   xmlns:rdf="http://www.w3.org/1999/02/22-rdf-syntax-ns#"
   xmlns:svg="http://www.w3.org/2000/svg"
   xmlns="http://www.w3.org/2000/svg"
   xmlns:sodipodi="http://sodipodi.sourceforge.net/DTD/sodipodi-0.dtd"
   xmlns:inkscape="http://www.inkscape.org/namespaces/inkscape"
   width="210mm"
   height="297mm"
   viewBox="0 0 210 297"
   version="1.1"
   id="svg8"
   inkscape:version="0.92.2 (5c3e80d, 2017-08-06)"
   sodipodi:docname="switch.svg"
   inkscape:export-filename="C:\Users\Chetanishq\Documents\ME\www\switch.png"
   inkscape:export-xdpi="96"
   inkscape:export-ydpi="96">
  <defs
     id="defs2" />
  <sodipodi:namedview
     id="base"
     pagecolor="#ffffff"
     bordercolor="#666666"
     borderopacity="1.0"
     inkscape:pageopacity="0.0"
     inkscape:pageshadow="2"
     inkscape:zoom="1"
     inkscape:cx="238.87338"
     inkscape:cy="380.03937"
     inkscape:document-units="mm"
     inkscape:current-layer="layer1"
     showgrid="false"
     showborder="false"
     inkscape:window-width="1920"
     inkscape:window-height="986"
     inkscape:window-x="-11"
     inkscape:window-y="-11"
     inkscape:window-maximized="1" />
  <metadata
     id="metadata5">
    <rdf:RDF>
      <cc:Work
         rdf:about="">
        <dc:format>image/svg+xml</dc:format>
        <dc:type
           rdf:resource="http://purl.org/dc/dcmitype/StillImage" />
        <dc:title />
      </cc:Work>
    </rdf:RDF>
  </metadata>
  <g
     inkscape:label="Layer 1"
     inkscape:groupmode="layer"
     id="layer1">
    <path
       style="opacity:1;fill:#333333;fill-opacity:1;stroke:none;stroke-width:0.18876466;stroke-linecap:round;stroke-linejoin:round;stroke-miterlimit:4;stroke-dasharray:none;stroke-opacity:1"
       d="M 92.44256,97.225437 C 52.949782,99.896574 16.759813,128.16455 4.9758099,166.04465 c -13.5901286,39.69743 1.4385587,86.9393 35.5627681,111.35217 33.528629,25.75406 83.612752,26.18641 117.560572,0.97488 33.65912,-23.26958 49.60344,-68.53129 38.28746,-107.84167 C 186.16229,131.526 150.35589,101.17633 110.23055,97.511215 104.32287,97.006869 98.365546,96.809291 92.44256,97.225437 Z"
       id="path3796"
       inkscape:connector-curvature="0" />
    <path
       style="opacity:1;fill:#666666;fill-opacity:1;stroke:none;stroke-width:0.21920168;stroke-linecap:round;stroke-linejoin:round;stroke-miterlimit:4;stroke-dasharray:none;stroke-opacity:1"
       d="m 93.676849,112.25469 c -36.240151,2.32571 -68.933426,30.28858 -76.412722,65.8842 -9.3022414,37.36938 10.855056,79.3151 45.865804,95.37169 33.249116,16.86173 76.875729,7.88603 100.935689,-20.54499 24.49176,-27.15361 27.93554,-70.43431 7.99116,-101.10105 -16.24228,-26.42228 -47.49246,-42.07931 -78.379931,-39.60985 z"
       id="path3800"
       inkscape:connector-curvature="0" />
    <path
       style="opacity:1;fill:#333333;fill-opacity:1;stroke:none;stroke-width:0.21743597;stroke-linecap:round;stroke-linejoin:round;stroke-miterlimit:4;stroke-dasharray:none;stroke-opacity:1"
       id="path3804"
       sodipodi:type="arc"
       sodipodi:cx="100"
       sodipodi:cy="197"
       sodipodi:rx="70"
       sodipodi:ry="70"
       sodipodi:start="0"
       sodipodi:end="6.2723294"
       sodipodi:open="true"
       d="m 170,197 a 70,70 0 0 1 -69.81002,69.99974 70,70 0 0 1 -70.188949,-69.61979 70,70 0 0 1 69.42904,-70.37763 70,70 0 0 1 70.565809,69.23778" />
  </g>
</svg>
